<?xml version="1.0" encoding="UTF-8" standalone="no"?>
<svg
   xmlns:dc="http://purl.org/dc/elements/1.1/"
   xmlns:cc="http://creativecommons.org/ns#"
   xmlns:rdf="http://www.w3.org/1999/02/22-rdf-syntax-ns#"
   xmlns:svg="http://www.w3.org/2000/svg"
   xmlns="http://www.w3.org/2000/svg"
   xmlns:sodipodi="http://sodipodi.sourceforge.net/DTD/sodipodi-0.dtd"
   xmlns:inkscape="http://www.inkscape.org/namespaces/inkscape"
   version="1.1"
   viewBox="0 0 254.76546 162.40836"
   stroke-miterlimit="10"
   id="svg163"
   sodipodi:docname="json_2.svg"
   inkscape:version="0.92.1 r15371"
   width="254.76546"
   height="162.40836"
   style="fill:none;stroke:none;stroke-linecap:square;stroke-miterlimit:10">
  <metadata
     id="metadata169">
    <rdf:RDF>
      <cc:Work
         rdf:about="">
        <dc:format>image/svg+xml</dc:format>
        <dc:type
           rdf:resource="http://purl.org/dc/dcmitype/StillImage" />
        <dc:title />
      </cc:Work>
    </rdf:RDF>
  </metadata>
  <defs
     id="defs167" />
  <sodipodi:namedview
     pagecolor="#ffffff"
     bordercolor="#666666"
     borderopacity="1"
     objecttolerance="10"
     gridtolerance="10"
     guidetolerance="10"
     inkscape:pageopacity="0"
     inkscape:pageshadow="2"
     inkscape:window-width="1920"
     inkscape:window-height="1021"
     id="namedview165"
     showgrid="false"
     inkscape:zoom="1.2361274"
     inkscape:cx="-60.204981"
     inkscape:cy="220.99628"
     inkscape:window-x="0"
     inkscape:window-y="27"
     inkscape:window-maximized="1"
     inkscape:current-layer="svg163"
     showguides="true"
     inkscape:guide-bbox="true"
     inkscape:snap-to-guides="false">
    <sodipodi:guide
       position="-681.9236,-59.728027"
       orientation="1,0"
       id="guide5827"
       inkscape:locked="false" />
  </sodipodi:namedview>
  <clipPath
     id="g25001aa136_1_0.0">
    <path
       d="M 0,0 H 960 V 540 H 0 Z"
       id="path2"
       inkscape:connector-curvature="0"
       style="clip-rule:nonzero" />
  </clipPath>
  <path
     style="fill:#ffffff;fill-rule:evenodd"
     inkscape:connector-curvature="0"
     id="path43-1-3-3"
     d="m 106.66068,13.38582 v 0 C 106.66068,7.0976 111.75829,2 118.0465,2 v 0 c 3.01971,0 5.91574,1.19957 8.05099,3.33483 2.13526,2.13526 3.33484,5.03129 3.33484,8.05099 v 0 c 0,6.28822 -5.09761,11.38583 -11.38583,11.38583 v 0 c -6.28821,0 -11.38582,-5.09761 -11.38582,-11.38583 z" />
  <path
     style="fill-rule:evenodd;stroke:#1a1a1a;stroke-width:4;stroke-linecap:butt;stroke-linejoin:round"
     inkscape:connector-curvature="0"
     id="path45-9-5-2"
     d="m 106.66068,13.38582 v 0 C 106.66068,7.0976 111.75829,2 118.0465,2 v 0 c 3.01971,0 5.91574,1.19957 8.05099,3.33483 2.13526,2.13526 3.33484,5.03129 3.33484,8.05099 v 0 c 0,6.28822 -5.09761,11.38583 -11.38583,11.38583 v 0 c -6.28821,0 -11.38582,-5.09761 -11.38582,-11.38583 z" />
  <path
     style="fill:#ffffff;fill-rule:evenodd"
     inkscape:connector-curvature="0"
     id="path47-6-9-8"
     d="m 41.9565,80.50076 v 0 c 0,-6.28822 5.09761,-11.38583 11.38583,-11.38583 v 0 c 3.0197,0 5.91574,1.19958 8.05099,3.33484 2.13525,2.13526 3.33482,5.03128 3.33482,8.05099 v 0 c 0,6.28822 -5.0976,11.38583 -11.38581,11.38583 v 0 c -6.28822,0 -11.38583,-5.09761 -11.38583,-11.38583 z" />
  <path
     style="fill-rule:evenodd;stroke:#1a1a1a;stroke-width:4;stroke-linecap:butt;stroke-linejoin:round"
     inkscape:connector-curvature="0"
     id="path49-2-3-0"
     d="m 41.9565,80.50076 v 0 c 0,-6.28822 5.09761,-11.38583 11.38583,-11.38583 v 0 c 3.0197,0 5.91574,1.19958 8.05099,3.33484 2.13525,2.13526 3.33482,5.03128 3.33482,8.05099 v 0 c 0,6.28822 -5.0976,11.38583 -11.38581,11.38583 v 0 c -6.28822,0 -11.38583,-5.09761 -11.38583,-11.38583 z" />
  <path
     style="fill:#00ffff;fill-rule:evenodd"
     inkscape:connector-curvature="0"
     id="path51-1-4-3"
     d="m 171.36486,80.50076 v 0 c 0,-6.28822 5.09759,-11.38583 11.3858,-11.38583 v 0 c 3.01972,0 5.91574,1.19958 8.051,3.33484 2.13528,2.13526 3.33484,5.03128 3.33484,8.05099 v 0 c 0,6.28822 -5.0976,11.38583 -11.38584,11.38583 v 0 c -6.28821,0 -11.3858,-5.09761 -11.3858,-11.38583 z" />
  <path
     style="fill-rule:evenodd;stroke:#1a1a1a;stroke-width:4;stroke-linecap:butt;stroke-linejoin:round"
     inkscape:connector-curvature="0"
     id="path53-2-1-7"
     d="m 171.36486,80.50076 v 0 c 0,-6.28822 5.09759,-11.38583 11.3858,-11.38583 v 0 c 3.01972,0 5.91574,1.19958 8.051,3.33484 2.13528,2.13526 3.33484,5.03128 3.33484,8.05099 v 0 c 0,6.28822 -5.0976,11.38583 -11.38584,11.38583 v 0 c -6.28821,0 -11.3858,-5.09761 -11.3858,-11.38583 z" />
  <path
     style="fill:#ffffff;fill-rule:evenodd"
     inkscape:connector-curvature="0"
     id="path55-0-5-0"
     d="m -19.4278,149.01356 v 0 c 0,-6.28822 5.09761,-11.38583 11.38582,-11.38583 v 0 c 3.01972,0 5.91575,1.19958 8.051,3.33483 2.13526,2.13526 3.33483,5.03129 3.33483,8.051 v 0 c 0,6.28822 -5.0976,11.38582 -11.38583,11.38582 v 0 c -6.28821,0 -11.38582,-5.0976 -11.38582,-11.38582 z" />
  <path
     style="fill:#ffffff;fill-rule:evenodd"
     inkscape:connector-curvature="0"
     id="path59-3-8-0"
     d="m 104.63111,149.01356 v 0 c 0,-6.28822 5.09761,-11.38583 11.38583,-11.38583 v 0 c 3.0197,0 5.91573,1.19958 8.051,3.33483 2.13525,2.13526 3.33482,5.03129 3.33482,8.051 v 0 c 0,6.28822 -5.09761,11.38582 -11.38582,11.38582 v 0 c -6.28822,0 -11.38583,-5.0976 -11.38583,-11.38582 z" />
  <path
     style="fill-rule:evenodd;stroke:#1a1a1a;stroke-width:4;stroke-linecap:butt;stroke-linejoin:round"
     inkscape:connector-curvature="0"
     id="path61-1-3-3"
     d="m 104.63111,149.01356 v 0 c 0,-6.28822 5.09761,-11.38583 11.38583,-11.38583 v 0 c 3.0197,0 5.91573,1.19958 8.051,3.33483 2.13525,2.13526 3.33482,5.03129 3.33482,8.051 v 0 c 0,6.28822 -5.09761,11.38582 -11.38582,11.38582 v 0 c -6.28822,0 -11.38583,-5.0976 -11.38583,-11.38582 z" />
  <path
     style="fill:#000000;fill-opacity:0;fill-rule:evenodd"
     inkscape:connector-curvature="0"
     id="path63-1-5-4"
     d="M 109.9955,21.43682 61.39708,72.46044" />
  <path
     style="fill-rule:evenodd;stroke:#1a1a1a;stroke-width:1;stroke-linecap:butt;stroke-linejoin:round"
     inkscape:connector-curvature="0"
     id="path65-9-6-9"
     d="M 109.9955,21.43682 61.39708,72.46044" />
  <path
     style="fill:#000000;fill-opacity:0;fill-rule:evenodd"
     inkscape:connector-curvature="0"
     id="path67-0-5-2"
     d="M 45.29134,88.55176 0,140.96121" />
  <path
     style="fill:#000000;fill-opacity:0;fill-rule:evenodd"
     inkscape:connector-curvature="0"
     id="path71-6-9-7"
     d="m 61.39332,88.55176 46.58267,52.40945" />
  <path
     style="fill-rule:evenodd;stroke:#1a1a1a;stroke-width:1;stroke-linecap:butt;stroke-linejoin:round"
     inkscape:connector-curvature="0"
     id="path73-7-0-4"
     d="m 61.39332,88.55176 46.58267,52.40945" />
  <path
     style="fill:#000000;fill-opacity:0;fill-rule:evenodd"
     inkscape:connector-curvature="0"
     id="path75-7-7-2"
     d="m 126.09749,21.43682 48.59843,51.02362" />
  <path
     style="fill-rule:evenodd;stroke:#1a1a1a;stroke-width:1;stroke-linecap:butt;stroke-linejoin:round"
     inkscape:connector-curvature="0"
     id="path77-4-6-5"
     d="m 126.09749,21.43682 48.59843,51.02362" />
  <path
     style="fill:#ffffff;fill-rule:evenodd"
     inkscape:connector-curvature="0"
     id="path79-0-3-2"
     d="m 229.99378,149.02252 v 0 c 0,-6.28822 5.09763,-11.38582 11.38583,-11.38582 v 0 c 3.01972,0 5.91574,1.19957 8.051,3.33483 2.13525,2.13525 3.33484,5.03128 3.33484,8.05099 v 0 c 0,6.28822 -5.09763,11.38583 -11.38584,11.38583 v 0 c -6.2882,0 -11.38583,-5.09761 -11.38583,-11.38583 z" />
  <path
     style="fill-rule:evenodd;stroke:#1a1a1a;stroke-width:4;stroke-linecap:butt;stroke-linejoin:round"
     inkscape:connector-curvature="0"
     id="path81-6-7-4"
     d="m 229.99378,149.02252 v 0 c 0,-6.28822 5.09763,-11.38582 11.38583,-11.38582 v 0 c 3.01972,0 5.91574,1.19957 8.051,3.33483 2.13525,2.13525 3.33484,5.03128 3.33484,8.05099 v 0 c 0,6.28822 -5.09763,11.38583 -11.38584,11.38583 v 0 c -6.2882,0 -11.38583,-5.09761 -11.38583,-11.38583 z" />
  <path
     style="fill:#000000;fill-opacity:0;fill-rule:evenodd"
     inkscape:connector-curvature="0"
     id="path83-4-6-4"
     d="m 190.80166,88.55176 42.51968,52.40945" />
  <path
     style="fill-rule:evenodd;stroke:#1a1a1a;stroke-width:1;stroke-linecap:butt;stroke-linejoin:round"
     inkscape:connector-curvature="0"
     id="path85-7-1-3"
     d="m 190.80166,88.55176 42.51968,52.40945" />
</svg>
