<?xml version="1.0" encoding="UTF-8" standalone="no"?>
<svg
   xmlns:dc="http://purl.org/dc/elements/1.1/"
   xmlns:cc="http://creativecommons.org/ns#"
   xmlns:rdf="http://www.w3.org/1999/02/22-rdf-syntax-ns#"
   xmlns:svg="http://www.w3.org/2000/svg"
   xmlns="http://www.w3.org/2000/svg"
   xmlns:sodipodi="http://sodipodi.sourceforge.net/DTD/sodipodi-0.dtd"
   xmlns:inkscape="http://www.inkscape.org/namespaces/inkscape"
   version="1.1"
   viewBox="0 0 392.08221 170.38014"
   stroke-miterlimit="10"
   id="svg163"
   sodipodi:docname="mst_tree_2.svg"
   inkscape:version="0.92.1 r15371"
   width="392.08221"
   height="170.38014"
   style="fill:none;stroke:none;stroke-linecap:square;stroke-miterlimit:10">
  <metadata
     id="metadata169">
    <rdf:RDF>
      <cc:Work
         rdf:about="">
        <dc:format>image/svg+xml</dc:format>
        <dc:type
           rdf:resource="http://purl.org/dc/dcmitype/StillImage" />
        <dc:title />
      </cc:Work>
    </rdf:RDF>
  </metadata>
  <defs
     id="defs167" />
  <sodipodi:namedview
     pagecolor="#ffffff"
     bordercolor="#666666"
     borderopacity="1"
     objecttolerance="10"
     gridtolerance="10"
     guidetolerance="10"
     inkscape:pageopacity="0"
     inkscape:pageshadow="2"
     inkscape:window-width="1920"
     inkscape:window-height="1021"
     id="namedview165"
     showgrid="false"
     inkscape:zoom="1.2361274"
     inkscape:cx="-157.61478"
     inkscape:cy="-9.8125012"
     inkscape:window-x="0"
     inkscape:window-y="27"
     inkscape:window-maximized="1"
     inkscape:current-layer="svg163"
     showguides="true"
     inkscape:guide-bbox="true"
     inkscape:snap-to-guides="false">
    <sodipodi:guide
       position="-660.25713,-290.5368"
       orientation="1,0"
       id="guide5827"
       inkscape:locked="false" />
  </sodipodi:namedview>
  <clipPath
     id="g25001aa136_1_0.0">
    <path
       d="M 0,0 H 960 V 540 H 0 Z"
       id="path2"
       inkscape:connector-curvature="0"
       style="clip-rule:nonzero" />
  </clipPath>
  <g
     id="g5903-4-7"
     transform="translate(-389.92743,-42.770256)">
    <rect
       transform="scale(-1,1)"
       ry="17.393028"
       y="42.770256"
       x="-566.28467"
       height="34.786057"
       width="173.12132"
       id="rect5798-1-8-6"
       style="fill:#c27ba0;fill-opacity:1;stroke:none;stroke-width:9.70993233;stroke-linecap:round;stroke-linejoin:miter;stroke-miterlimit:4;stroke-dasharray:none;stroke-dashoffset:0;stroke-opacity:1" />
    <text
       id="text5802-9-5-5"
       y="68.896065"
       x="404.53702"
       style="font-style:normal;font-weight:normal;font-size:40px;line-height:125%;font-family:sans-serif;letter-spacing:0px;word-spacing:0px;fill:#000000;fill-opacity:1;stroke:none;stroke-width:1px;stroke-linecap:butt;stroke-linejoin:miter;stroke-opacity:1"
       xml:space="preserve"><tspan
         style="font-size:24.00000191px;fill:#ffffff;fill-opacity:1"
         y="68.896065"
         x="404.53702"
         id="tspan5800-9-8-7"
         sodipodi:role="line">Bathroom</tspan></text>
  </g>
  <g
     id="g5898-2-1"
     transform="translate(-393.16334,-25.596206)">
    <rect
       transform="scale(-1,1)"
       ry="17.393028"
       y="92.117928"
       x="-503.99335"
       height="34.786057"
       width="110.83001"
       id="rect5798-6-3"
       style="fill:#6aa84f;fill-opacity:1;stroke:none;stroke-width:7.76908016;stroke-linecap:round;stroke-linejoin:miter;stroke-miterlimit:4;stroke-dasharray:none;stroke-dashoffset:0;stroke-opacity:1" />
    <text
       id="text5802-0-3"
       y="118.24371"
       x="404.53702"
       style="font-style:normal;font-weight:normal;font-size:40px;line-height:125%;font-family:sans-serif;letter-spacing:0px;word-spacing:0px;fill:#000000;fill-opacity:1;stroke:none;stroke-width:1px;stroke-linecap:butt;stroke-linejoin:miter;stroke-opacity:1"
       xml:space="preserve"><tspan
         style="font-size:24.00000191px;fill:#ffffff;fill-opacity:1"
         y="118.24371"
         x="404.53702"
         id="tspan5800-6-3"
         sodipodi:role="line">Toilet</tspan></text>
  </g>
  <rect
     style="fill:#3d85c6;fill-opacity:1;stroke:none;stroke-width:8.78068352;stroke-linecap:round;stroke-linejoin:miter;stroke-miterlimit:4;stroke-dasharray:none;stroke-dashoffset:0;stroke-opacity:1"
     id="rect5798-5-96-8"
     width="141.57118"
     height="34.786057"
     x="-344.62469"
     y="67.409515"
     ry="17.393028"
     transform="scale(-1,1)" />
  <text
     xml:space="preserve"
     style="font-style:normal;font-weight:normal;font-size:40px;line-height:125%;font-family:sans-serif;letter-spacing:0px;word-spacing:0px;fill:#000000;fill-opacity:1;stroke:none;stroke-width:1px;stroke-linecap:butt;stroke-linejoin:miter;stroke-opacity:1"
     x="240.42725"
     y="93.535278"
     id="text5802-3-07-7"><tspan
       sodipodi:role="line"
       id="tspan5800-4-0-6"
       x="240.42725"
       y="93.535278"
       style="font-size:24.00000191px;fill:#ffffff;fill-opacity:1">Painting</tspan></text>
  <rect
     style="fill:#f1c232;fill-opacity:1;stroke:none;stroke-width:8.42213631;stroke-linecap:round;stroke-linejoin:miter;stroke-miterlimit:4;stroke-dasharray:none;stroke-dashoffset:0;stroke-opacity:1"
     id="rect5798-5-9-0-3"
     width="130.24548"
     height="34.786057"
     x="-392.08221"
     y="135.59409"
     ry="17.393028"
     transform="scale(-1,1)" />
  <text
     xml:space="preserve"
     style="font-style:normal;font-weight:normal;font-size:40px;line-height:125%;font-family:sans-serif;letter-spacing:0px;word-spacing:0px;fill:#000000;fill-opacity:1;stroke:none;stroke-width:1px;stroke-linecap:butt;stroke-linejoin:miter;stroke-opacity:1"
     x="295.21039"
     y="161.71985"
     id="text5802-3-0-1-5"><tspan
       sodipodi:role="line"
       id="tspan5800-4-2-3-0"
       x="295.21039"
       y="161.71985"
       style="font-size:24.00000191px;fill:#ffffff;fill-opacity:1">Anchor</tspan></text>
  <g
     id="g5893-6-9-8"
     transform="translate(-324.42266,-6.484316)">
    <rect
       transform="scale(-1,1)"
       ry="17.393028"
       y="141.46559"
       x="-497.52151"
       height="34.786057"
       width="104.35818"
       id="rect5798-7-4-0-0"
       style="fill:#e69138;fill-opacity:1;stroke:none;stroke-width:7.5388341;stroke-linecap:round;stroke-linejoin:miter;stroke-miterlimit:4;stroke-dasharray:none;stroke-dashoffset:0;stroke-opacity:1" />
    <text
       id="text5802-8-6-2-4"
       y="167.59138"
       x="404.53702"
       style="font-style:normal;font-weight:normal;font-size:40px;line-height:125%;font-family:sans-serif;letter-spacing:0px;word-spacing:0px;fill:#000000;fill-opacity:1;stroke:none;stroke-width:1px;stroke-linecap:butt;stroke-linejoin:miter;stroke-opacity:1"
       xml:space="preserve"><tspan
         style="font-size:24.00000191px;fill:#ffffff;fill-opacity:1"
         y="167.59138"
         x="404.53702"
         id="tspan5800-2-2-4-1"
         sodipodi:role="line">Sh_t</tspan></text>
  </g>
  <path
     style="fill:#ffffff;fill-rule:evenodd"
     inkscape:connector-curvature="0"
     id="path43-1-3"
     d="m 145.31565,17.562754 v 0 c 0,-6.28822 5.09761,-11.385826 11.38582,-11.385826 v 0 c 3.01971,0 5.91574,1.199573 8.05099,3.334831 2.13526,2.135258 3.33484,5.031288 3.33484,8.050995 v 0 c 0,6.28822 -5.09761,11.38583 -11.38583,11.38583 v 0 c -6.28821,0 -11.38582,-5.09761 -11.38582,-11.38583 z" />
  <path
     style="fill-rule:evenodd;stroke:#1a1a1a;stroke-width:4;stroke-linecap:butt;stroke-linejoin:round"
     inkscape:connector-curvature="0"
     id="path45-9-5"
     d="m 145.31565,17.562754 v 0 c 0,-6.28822 5.09761,-11.385826 11.38582,-11.385826 v 0 c 3.01971,0 5.91574,1.199573 8.05099,3.334831 2.13526,2.135258 3.33484,5.031288 3.33484,8.050995 v 0 c 0,6.28822 -5.09761,11.38583 -11.38583,11.38583 v 0 c -6.28821,0 -11.38582,-5.09761 -11.38582,-11.38583 z" />
  <path
     style="fill:#ffffff;fill-rule:evenodd"
     inkscape:connector-curvature="0"
     id="path47-6-9"
     d="m 80.611462,84.677694 v 0 c 0,-6.28822 5.09761,-11.38583 11.38583,-11.38583 v 0 c 3.0197,0 5.91574,1.19958 8.050998,3.33484 2.13525,2.13526 3.33482,5.03128 3.33482,8.05099 v 0 c 0,6.28822 -5.097608,11.38583 -11.385818,11.38583 v 0 c -6.28822,0 -11.38583,-5.09761 -11.38583,-11.38583 z" />
  <path
     style="fill-rule:evenodd;stroke:#1a1a1a;stroke-width:4;stroke-linecap:butt;stroke-linejoin:round"
     inkscape:connector-curvature="0"
     id="path49-2-3"
     d="m 80.611462,84.677694 v 0 c 0,-6.28822 5.09761,-11.38583 11.38583,-11.38583 v 0 c 3.0197,0 5.91574,1.19958 8.050998,3.33484 2.13525,2.13526 3.33482,5.03128 3.33482,8.05099 v 0 c 0,6.28822 -5.097608,11.38583 -11.385818,11.38583 v 0 c -6.28822,0 -11.38583,-5.09761 -11.38583,-11.38583 z" />
  <path
     style="fill:#00ffff;fill-rule:evenodd"
     inkscape:connector-curvature="0"
     id="path51-1-4"
     d="m 210.01983,84.677694 v 0 c 0,-6.28822 5.09759,-11.38583 11.3858,-11.38583 v 0 c 3.01972,0 5.91574,1.19958 8.051,3.33484 2.13528,2.13526 3.33484,5.03128 3.33484,8.05099 v 0 c 0,6.28822 -5.0976,11.38583 -11.38584,11.38583 v 0 c -6.28821,0 -11.3858,-5.09761 -11.3858,-11.38583 z" />
  <path
     style="fill-rule:evenodd;stroke:#1a1a1a;stroke-width:4;stroke-linecap:butt;stroke-linejoin:round"
     inkscape:connector-curvature="0"
     id="path53-2-1"
     d="m 210.01983,84.677694 v 0 c 0,-6.28822 5.09759,-11.38583 11.3858,-11.38583 v 0 c 3.01972,0 5.91574,1.19958 8.051,3.33484 2.13528,2.13526 3.33484,5.03128 3.33484,8.05099 v 0 c 0,6.28822 -5.0976,11.38583 -11.38584,11.38583 v 0 c -6.28821,0 -11.3858,-5.09761 -11.3858,-11.38583 z" />
  <path
     style="fill:#ffffff;fill-rule:evenodd"
     inkscape:connector-curvature="0"
     id="path55-0-5"
     d="m 19.227162,153.19049 v 0 c 0,-6.28822 5.09761,-11.38583 11.38582,-11.38583 v 0 c 3.01972,0 5.91575,1.19958 8.051,3.33483 2.13526,2.13526 3.33483,5.03129 3.33483,8.051 v 0 c 0,6.28822 -5.0976,11.38582 -11.38583,11.38582 v 0 c -6.28821,0 -11.38582,-5.0976 -11.38582,-11.38582 z" />
  <path
     style="fill:#ffffff;fill-rule:evenodd"
     inkscape:connector-curvature="0"
     id="path59-3-8"
     d="m 143.28608,153.19049 v 0 c 0,-6.28822 5.09761,-11.38583 11.38583,-11.38583 v 0 c 3.0197,0 5.91573,1.19958 8.051,3.33483 2.13525,2.13526 3.33482,5.03129 3.33482,8.051 v 0 c 0,6.28822 -5.09761,11.38582 -11.38582,11.38582 v 0 c -6.28822,0 -11.38583,-5.0976 -11.38583,-11.38582 z" />
  <path
     style="fill-rule:evenodd;stroke:#1a1a1a;stroke-width:4;stroke-linecap:butt;stroke-linejoin:round"
     inkscape:connector-curvature="0"
     id="path61-1-3"
     d="m 143.28608,153.19049 v 0 c 0,-6.28822 5.09761,-11.38583 11.38583,-11.38583 v 0 c 3.0197,0 5.91573,1.19958 8.051,3.33483 2.13525,2.13526 3.33482,5.03129 3.33482,8.051 v 0 c 0,6.28822 -5.09761,11.38582 -11.38582,11.38582 v 0 c -6.28822,0 -11.38583,-5.0976 -11.38583,-11.38582 z" />
  <path
     style="fill:#000000;fill-opacity:0;fill-rule:evenodd"
     inkscape:connector-curvature="0"
     id="path63-1-5"
     d="m 148.65047,25.613754 -48.59842,51.02362" />
  <path
     style="fill-rule:evenodd;stroke:#1a1a1a;stroke-width:1;stroke-linecap:butt;stroke-linejoin:round"
     inkscape:connector-curvature="0"
     id="path65-9-6"
     d="m 148.65047,25.613754 -48.59842,51.02362" />
  <path
     style="fill:#000000;fill-opacity:0;fill-rule:evenodd"
     inkscape:connector-curvature="0"
     id="path67-0-5"
     d="M 83.946302,92.728694 38.654962,145.13814" />
  <path
     style="fill:#000000;fill-opacity:0;fill-rule:evenodd"
     inkscape:connector-curvature="0"
     id="path71-6-9"
     d="m 100.04829,92.728694 46.58267,52.409446" />
  <path
     style="fill-rule:evenodd;stroke:#1a1a1a;stroke-width:1;stroke-linecap:butt;stroke-linejoin:round"
     inkscape:connector-curvature="0"
     id="path73-7-0"
     d="m 100.04829,92.728694 46.58267,52.409446" />
  <path
     style="fill:#000000;fill-opacity:0;fill-rule:evenodd"
     inkscape:connector-curvature="0"
     id="path75-7-7"
     d="m 164.75246,25.613754 48.59843,51.02362" />
  <path
     style="fill-rule:evenodd;stroke:#1a1a1a;stroke-width:1;stroke-linecap:butt;stroke-linejoin:round"
     inkscape:connector-curvature="0"
     id="path77-4-6"
     d="m 164.75246,25.613754 48.59843,51.02362" />
  <path
     style="fill:#ffffff;fill-rule:evenodd"
     inkscape:connector-curvature="0"
     id="path79-0-3"
     d="m 268.64875,153.19945 v 0 c 0,-6.28822 5.09763,-11.38582 11.38583,-11.38582 v 0 c 3.01972,0 5.91574,1.19957 8.051,3.33483 2.13525,2.13525 3.33484,5.03128 3.33484,8.05099 v 0 c 0,6.28822 -5.09763,11.38583 -11.38584,11.38583 v 0 c -6.2882,0 -11.38583,-5.09761 -11.38583,-11.38583 z" />
  <path
     style="fill-rule:evenodd;stroke:#1a1a1a;stroke-width:4;stroke-linecap:butt;stroke-linejoin:round"
     inkscape:connector-curvature="0"
     id="path81-6-7"
     d="m 268.64875,153.19945 v 0 c 0,-6.28822 5.09763,-11.38582 11.38583,-11.38582 v 0 c 3.01972,0 5.91574,1.19957 8.051,3.33483 2.13525,2.13525 3.33484,5.03128 3.33484,8.05099 v 0 c 0,6.28822 -5.09763,11.38583 -11.38584,11.38583 v 0 c -6.2882,0 -11.38583,-5.09761 -11.38583,-11.38583 z" />
  <path
     style="fill:#000000;fill-opacity:0;fill-rule:evenodd"
     inkscape:connector-curvature="0"
     id="path83-4-6"
     d="m 229.45663,92.728694 42.51968,52.409446" />
  <path
     style="fill-rule:evenodd;stroke:#1a1a1a;stroke-width:1;stroke-linecap:butt;stroke-linejoin:round"
     inkscape:connector-curvature="0"
     id="path85-7-1"
     d="m 229.45663,92.728694 42.51968,52.409446" />
</svg>
